<svg width="32" height="32" viewBox="0 0 32 32" fill="none" xmlns="http://www.w3.org/2000/svg">
  <defs>
    <linearGradient id="gradient" x1="0%" y1="0%" x2="100%" y2="100%">
      <stop offset="0%" style="stop-color:#2563eb;stop-opacity:1" />
      <stop offset="100%" style="stop-color:#0ea5e9;stop-opacity:1" />
    </linearGradient>
    <filter id="shadow" x="-20%" y="-20%" width="140%" height="140%">
      <dropShadow dx="1" dy="1" stdDeviation="1" flood-color="#1e40af" flood-opacity="0.3"/>
    </filter>
  </defs>
  
  <!-- Background square with rounded corners -->
  <rect x="2" y="2" width="28" height="28" rx="6" ry="6" fill="url(#gradient)" stroke="#ffffff" stroke-width="1"/>
  
  <!-- Dice face (front) -->
  <rect x="6" y="6" width="16" height="16" rx="2" ry="2" fill="#ffffff" stroke="#2563eb" stroke-width="0.5" filter="url(#shadow)"/>
  
  <!-- Dice dots (showing 6) -->
  <!-- Left column -->
  <circle cx="9" cy="9" r="1.5" fill="#2563eb"/>
  <circle cx="9" cy="13" r="1.5" fill="#2563eb"/>
  <circle cx="9" cy="17" r="1.5" fill="#2563eb"/>
  
  <!-- Right column -->
  <circle cx="19" cy="9" r="1.5" fill="#2563eb"/>
  <circle cx="19" cy="13" r="1.5" fill="#2563eb"/>
  <circle cx="19" cy="17" r="1.5" fill="#2563eb"/>
  
  <!-- Top face (visible in 3D perspective) -->
  <path d="M 6 6 L 10 2 L 26 2 L 22 6 Z" fill="#e0f2fe" stroke="#2563eb" stroke-width="0.5"/>
  
  <!-- Right face (visible in 3D perspective) -->
  <path d="M 22 6 L 26 2 L 26 18 L 22 22 Z" fill="#bfdbfe" stroke="#2563eb" stroke-width="0.5"/>
  
  <!-- Highlight for 3D effect -->
  <rect x="6.5" y="6.5" width="1" height="15" fill="#ffffff" opacity="0.3"/>
  <rect x="6.5" y="6.5" width="15" height="1" fill="#ffffff" opacity="0.3"/>
</svg>
